<?xml version="1.0" encoding="UTF-8"?>
<svg width="800" height="600" viewBox="0 0 800 600" xmlns="http://www.w3.org/2000/svg">
  <style>
    @keyframes neuralPulse {
      0% { stroke: #0ff; filter: drop-shadow(0 0 2px #0ff); }
      50% { stroke: #f0f; filter: drop-shadow(0 0 5px #f0f); }
      100% { stroke: #0ff; filter: drop-shadow(0 0 2px #0ff); }
    }
    @keyframes thoughtFlow {
      from { stroke-dashoffset: 1000; }
      to { stroke-dashoffset: 0; }
    }
    @keyframes brainPulse {
      0% { fill-opacity: 0.3; }
      50% { fill-opacity: 0.7; }
      100% { fill-opacity: 0.3; }
    }
    .neural { animation: neuralPulse 3s infinite; }
    .thought-line { 
      stroke-dasharray: 10;
      animation: thoughtFlow 5s linear infinite;
    }
    .brain-activity {
      animation: brainPulse 2s infinite;
    }
    text { 
      font-family: 'Courier New', monospace;
      fill: #fff;
      filter: drop-shadow(0 0 2px #0ff);
    }
  </style>

  <!-- Human Developer -->
  <g transform="translate(100,300)">
    <circle cx="50" cy="50" r="40" fill="#0ff" fill-opacity="0.3" stroke="#0ff" stroke-width="2" class="neural"/>
    <text x="50" y="55" text-anchor="middle">Human</text>
  </g>

  <!-- AI Assistant -->
  <g transform="translate(600,300)">
    <polygon points="50,0 100,50 50,100 0,50" fill="#f0f" fill-opacity="0.3" stroke="#f0f" stroke-width="2" class="neural"/>
    <text x="50" y="55" text-anchor="middle">AI</text>
  </g>

  <!-- Collaboration Flow -->
  <g transform="translate(250,200)">
    <path d="M0,0 C100,0 200,100 300,0" fill="none" stroke="#0ff" stroke-width="2" class="thought-line"/>
    <text x="150" y="-20" text-anchor="middle">Requirements</text>
  </g>

  <g transform="translate(250,300)">
    <path d="M0,0 C100,0 200,-100 300,0" fill="none" stroke="#f0f" stroke-width="2" class="thought-line"/>
    <text x="150" y="30" text-anchor="middle">Code Generation</text>
  </g>

  <g transform="translate(250,400)">
    <path d="M0,0 C100,0 200,100 300,0" fill="none" stroke="#0f0" stroke-width="2" class="thought-line"/>
    <text x="150" y="-20" text-anchor="middle">Review & Test</text>
  </g>

  <!-- Neural Network Background -->
  <g transform="translate(0,0)" fill="none" stroke="#0ff" stroke-width="1" opacity="0.2">
    <path d="M0,0 L800,600" class="neural"/>
    <path d="M800,0 L0,600" class="neural"/>
    <path d="M400,0 L400,600" class="neural"/>
    <path d="M0,300 L800,300" class="neural"/>
  </g>

  <!-- Activity Indicators -->
  <g>
    <circle cx="400" cy="200" r="5" fill="#0ff" class="brain-activity"/>
    <circle cx="400" cy="300" r="5" fill="#f0f" class="brain-activity"/>
    <circle cx="400" cy="400" r="5" fill="#0f0" class="brain-activity"/>
  </g>
</svg>
